HIERARCHY
ROOT root
{
	OFFSET	0	13.1	24.9
	CHANNELS 6  Xposition Yposition Zposition Xrotation Yrotation Zrotation
	JOINT spine_1
	{
		OFFSET	0	9.99999	0
		CHANNELS 3  Xrotation Yrotation Zrotation
		JOINT spine_2
		{
			OFFSET	0	112	-10
			CHANNELS 3  Xrotation Yrotation Zrotation
			JOINT spine_3
			{
				OFFSET	0	206.5	19.3
				CHANNELS 3  Xrotation Yrotation Zrotation
				JOINT spine_4
				{
					OFFSET	0	110.4	14.6
					CHANNELS 3  Xrotation Yrotation Zrotation
					JOINT neck_1
					{
						OFFSET	0	71.8	-50.3
						CHANNELS 3  Xrotation Yrotation Zrotation
						JOINT neck_2
						{
							OFFSET	0	86.2	-25.8
							CHANNELS 3  Xrotation Yrotation Zrotation
							JOINT head_ee
							{
								OFFSET	0	179.8	-8.7
								CHANNELS 3  Xrotation Yrotation Zrotation
								End Site
								{
									OFFSET	1	0	0
								}
							}
						}
					}
					JOINT left_clavicle
					{
						OFFSET	-43.2	22.4	-70.8
						CHANNELS 3  Xrotation Yrotation Zrotation
						JOINT left_shoulder
						{
							OFFSET	-93.9	-5.79999	48.7
							CHANNELS 3  Xrotation Yrotation Zrotation
							JOINT left_elbow
							{
								OFFSET	-291.4	-30.8	15.2
								CHANNELS 3  Xrotation Yrotation Zrotation
								JOINT left_lowarm_twist
								{
									OFFSET	-110.7	-3.89999	13.6
									CHANNELS 3  Xrotation Yrotation Zrotation
									JOINT left_hand
									{
										OFFSET	-110.7	-3.89999	13.6
										CHANNELS 3  Xrotation Yrotation Zrotation
										JOINT left_ee
										{
											OFFSET	-80.8	-5.10001	12.1
											CHANNELS 3  Xrotation Yrotation Zrotation
											End Site
											{
												OFFSET	1	0	0
											}
										}
									}
								}
							}
						}
					}
					JOINT right_clavicle
					{
						OFFSET	43.2	22.4	-70.8
						CHANNELS 3  Xrotation Yrotation Zrotation
						JOINT right_shoulder
						{
							OFFSET	93.9	-5.79999	48.7
							CHANNELS 3  Xrotation Yrotation Zrotation
							JOINT right_elbow
							{
								OFFSET	291.4	-30.8	15.2
								CHANNELS 3  Xrotation Yrotation Zrotation
								JOINT right_lowarm_twist
								{
									OFFSET	110.7	-3.89999	13.6
									CHANNELS 3  Xrotation Yrotation Zrotation
									JOINT right_hand
									{
										OFFSET	110.7	-3.89999	13.6
										CHANNELS 3  Xrotation Yrotation Zrotation
										JOINT right_ee
										{
											OFFSET	80.8	-5.10001	12.1
											CHANNELS 3  Xrotation Yrotation Zrotation
											End Site
											{
												OFFSET	1	0	0
											}
										}
									}
								}
							}
						}
					}
				}
			}
		}
	}
	JOINT left_hip
	{
		OFFSET	-82.8	-127.5	0.300001
		CHANNELS 3  Xrotation Yrotation Zrotation
		JOINT left_knee
		{
			OFFSET	-28.2	-396.7	2.2
			CHANNELS 3  Xrotation Yrotation Zrotation
			JOINT left_ankle
			{
				OFFSET	-11.7	-411.3	35.4
				CHANNELS 3  Xrotation Yrotation Zrotation
				JOINT left_toes
				{
					OFFSET	0	-60	-88.6
					CHANNELS 3  Xrotation Yrotation Zrotation
					JOINT left_foot_ee
					{
						OFFSET	-22.5	-16.5	-42.2
						CHANNELS 3  Xrotation Yrotation Zrotation
						End Site
						{
							OFFSET	1	0	0
						}
					}
				}
			}
		}
	}
	JOINT right_hip
	{
		OFFSET	82.8	-127.5	0.300001
		CHANNELS 3  Xrotation Yrotation Zrotation
		JOINT right_knee
		{
			OFFSET	28.2	-396.7	2.2
			CHANNELS 3  Xrotation Yrotation Zrotation
			JOINT right_ankle
			{
				OFFSET	11.7	-411.3	35.4
				CHANNELS 3  Xrotation Yrotation Zrotation
				JOINT right_toes
				{
					OFFSET	0	-60	-88.6
					CHANNELS 3  Xrotation Yrotation Zrotation
					JOINT right_foot_ee
					{
						OFFSET	22.5	-16.5	-42.2
						CHANNELS 3  Xrotation Yrotation Zrotation
						End Site
						{
							OFFSET	1	0	0
						}
					}
				}
			}
		}
	}
}
MOTION
Frames: 15
Frame Time: 0.02
3515.33 679.71 -1584.85 -3.64626 80.6991 3.31235 0.676068 0.651942 -0.236719 0.675853 0.665684 -0.194753 0.673474 0.691106 -0.0586089 0.674102 0.673176 -0.167026 -8.15047 1.60364 0.421193 -8.151 2.69781 0.769127 -0.0 0.0 -0.0 3.01534 25.0779 6.88444 -24.2657 -14.0922 69.3865 1.99125 -44.603 0.816801 -85.1998 -8.47689 5.17963 5.03265 31.5575 43.2212 -0.0 0.0 -0.0 11.1995 4.73774 -22.399 -21.6535 48.9417 -53.9553 0.182519 5.16645 -0.00823464 -84.6111 8.40327 -5.19397 -10.1704 -20.6199 71.393 0.0 0.0 0.0 12.5629 2.21534 -4.27947 -41.5992 -0.571632 6.22069 39.8115 8.99982 -4.85325 -18.2747 0.0 0.0 -0.0 0.0 -0.0 8.84787 -24.5667 8.6821 -30.7385 -0.0150712 -4.66107 33.6902 30.4102 5.277 10.5904 -0.0 -0.0 0.0 0.0 0.0 
3501.0 682.339 -1584.22 -4.84656 81.4736 4.24771 0.8993 0.775948 -0.170954 0.898973 0.785253 -0.121229 0.897201 0.793824 0.0341006 0.898069 0.789246 -0.0917049 -7.41565 1.08509 0.734097 -7.41446 1.49369 0.957375 -0.0 0.0 -0.0 2.39496 24.4709 6.03647 -24.3886 -10.8317 70.4722 1.82825 -42.1618 0.704813 -84.9484 -8.44548 5.18585 4.89712 31.3064 42.1746 -0.0 0.0 -0.0 11.3089 5.0174 -22.6467 -21.0645 49.173 -53.7761 0.196934 5.57201 -0.00958349 -84.6793 8.41181 -5.19235 -10.3606 -22.1041 70.8652 0.0 0.0 0.0 13.8553 3.54328 -4.27778 -40.7208 -0.513258 6.09888 35.0703 9.53315 -4.41576 -18.5632 0.0 0.0 -0.0 0.0 -0.0 7.22453 -25.8594 9.31117 -28.5865 -0.0956047 -4.34065 34.806 32.0718 5.52119 8.16593 -0.0 -0.0 0.0 0.0 0.0 
3498.39 682.563 -1589.44 -6.30637 81.4039 5.70707 0.839721 0.756806 0.0289735 0.839406 0.753428 0.0770751 0.840369 0.723755 0.223105 0.841085 0.749907 0.105995 -6.17926 0.904529 0.860513 -6.17734 1.04096 1.03875 -0.0 0.0 -0.0 1.82503 24.0458 5.24668 -24.431 -7.20394 70.5295 1.74489 -40.8354 0.649574 -84.8498 -8.43314 5.18825 4.59393 31.1522 39.8935 -0.0 0.0 -0.0 11.2489 4.81354 -22.509 -17.2913 50.9813 -53.716 0.246807 6.9706 -0.0150318 -83.1049 8.21424 -5.22718 -10.2096 -20.9659 71.1697 0.0 0.0 0.0 14.9191 4.11024 -5.24756 -28.5403 0.0972005 4.33374 35.2467 7.49956 -4.42487 -25.1811 0.0 0.0 -0.0 0.0 -0.0 8.85802 -31.5593 10.685 -30.3254 -0.031467 -4.59978 36.523 33.523 5.82584 8.50109 -0.0 -0.0 0.0 0.0 0.0 
3496.33 684.333 -1592.24 -13.5145 81.6611 12.6659 1.11538 0.681699 0.140896 1.11514 0.671351 0.183991 1.1173 0.623836 0.308863 1.11778 0.664785 0.206461 -5.49493 0.983178 1.76971 -5.4864 0.494197 1.97151 -0.0 0.0 -0.0 1.45046 23.1243 4.67782 -23.5585 -2.59891 71.458 1.51107 -36.8139 0.502895 -84.7488 -8.42051 5.19069 4.26931 30.9389 37.5448 -0.0 0.0 -0.0 11.3959 4.7989 -22.8291 -14.7023 52.2882 -54.338 0.309003 8.70296 -0.0235134 -83.0352 8.20546 -5.2286 -10.2853 -21.539 71.0275 0.0 0.0 0.0 15.5222 3.85958 -5.4051 -18.7734 0.308219 2.85157 33.2015 6.81629 -4.2212 -30.2944 0.0 0.0 -0.0 0.0 -0.0 10.6712 -37.7043 11.4294 -28.5496 -0.0968831 -4.33511 36.547 34.0927 5.87535 6.52445 -0.0 -0.0 0.0 0.0 0.0 
3494.09 687.251 -1591.92 -16.4763 80.7261 15.308 1.28969 0.749328 0.251274 1.28943 0.73182 0.298448 1.29328 0.662656 0.430722 1.29375 0.722364 0.320659 -5.61392 1.18284 2.42289 -5.59775 0.381148 2.66899 -0.0 0.0 -0.0 1.226 23.1576 4.37031 -23.0555 1.07215 71.9665 1.33592 -33.494 0.402007 -84.5731 -8.39852 5.19487 4.03268 30.7492 35.882 -0.0 0.0 -0.0 11.4654 5.06913 -22.9906 -11.595 53.6667 -55.0917 0.350972 9.86313 -0.0302838 -83.0084 8.20208 -5.22914 -10.3152 -21.9463 70.3591 0.0 0.0 0.0 17.6083 3.21435 -6.31736 -10.5256 0.288249 1.58735 30.5552 5.66988 -3.94722 -34.1657 0.0 0.0 -0.0 0.0 -0.0 11.5963 -42.6126 12.6632 -25.3279 -0.194482 -3.85039 36.7096 33.5966 5.85235 5.00882 -0.0 -0.0 0.0 0.0 0.0 
3489.72 690.738 -1586.75 -22.8405 80.9733 20.8442 1.42852 0.690946 0.35105 1.42834 0.667207 0.394306 1.433 0.582424 0.5113 1.43324 0.655864 0.4129 -5.42717 2.20705 3.10043 -5.4015 1.75398 3.54051 -0.0 0.0 -0.0 1.02005 23.9378 4.14797 -22.8975 3.54806 72.2767 1.22709 -31.2926 0.343691 -84.4461 -8.38261 5.19785 3.86487 30.6134 34.7252 -0.0 0.0 -0.0 11.5944 5.28812 -23.2811 -8.68492 53.8313 -55.2051 0.384848 10.7937 -0.0363577 -82.4518 8.13198 -5.24002 -10.5427 -23.4088 70.5463 0.0 0.0 0.0 19.3683 1.5795 -4.90802 -7.47606 0.234846 1.12251 28.6504 5.08943 -3.74288 -36.3952 0.0 0.0 -0.0 0.0 -0.0 11.0679 -45.777 13.1421 -18.5682 -0.30993 -2.82014 36.1741 32.3057 5.69184 1.87067 -0.0 -0.0 0.0 0.0 0.0 
3485.79 693.384 -1587.41 -29.6385 81.7951 27.323 1.52035 0.571685 0.426016 1.52028 0.543418 0.46153 1.52474 0.449191 0.553661 1.5247 0.530993 0.475773 -5.92602 3.42313 2.94952 -5.90317 4.1461 3.6148 -0.0 0.0 -0.0 1.15833 23.6476 4.31383 -22.1908 5.29808 71.9173 1.1282 -29.199 0.293873 -83.5473 -8.26986 5.21795 3.76895 30.5705 34.0746 -0.0 0.0 -0.0 11.7468 5.44626 -23.6221 -6.008 54.232 -55.9633 0.393183 11.0218 -0.0379348 -80.9181 7.9382 -5.26644 -10.8153 -25.2982 69.9291 0.0 0.0 0.0 21.1098 -0.333261 -3.81961 -4.36681 0.155002 0.652087 25.951 3.30052 -3.44569 -38.6404 0.0 0.0 -0.0 0.0 -0.0 9.8684 -43.9942 12.4145 -15.4719 -0.322079 -2.34528 36.7313 31.8545 5.71846 -0.53342 0.0 0.0 0.0 0.0 0.0 
3473.35 693.521 -1584.13 -35.432 82.0492 32.667 1.60187 0.423723 0.489524 1.60192 0.391715 0.515494 1.60551 0.290956 0.578375 1.60524 0.378647 0.525167 -4.69341 5.54237 2.4509 -4.66677 8.32138 3.43717 -0.0 0.0 -0.0 0.982102 23.6656 4.07478 -22.3842 7.11109 71.6461 0.951584 -25.2382 0.213042 -82.4269 -8.12883 5.24049 3.70688 30.286 33.6328 -0.0 0.0 -0.0 11.8411 5.66687 -23.8382 -4.14441 54.1011 -56.0792 0.427623 11.9605 -0.0447961 -80.2992 7.85979 -5.27561 -11.0594 -27.1866 68.316 0.0 0.0 0.0 22.7232 -1.49314 -3.06847 -2.25845 0.0863791 0.33581 24.5253 1.96473 -3.28669 -40.1783 0.0 0.0 -0.0 0.0 -0.0 9.13466 -45.4174 12.7286 -12.1078 -0.306187 -1.82945 36.7127 32.7294 5.78342 -2.25427 0.0 0.0 0.0 0.0 0.0 
3459.38 691.153 -1584.71 -44.7523 83.2584 41.6409 1.70329 0.391564 0.60533 1.70342 0.352253 0.629018 1.70736 0.232634 0.682367 1.70687 0.337479 0.637066 -4.1183 7.43846 1.88299 -4.07162 12.1762 3.12645 -0.0 0.0 -0.0 1.20779 23.5566 4.37465 -21.8216 8.51927 69.4553 0.797968 -21.5683 0.151994 -81.6743 -8.03384 5.25407 3.76506 30.5863 34.0499 -0.0 0.0 -0.0 11.8743 5.83963 -23.9175 -2.60733 53.3066 -55.9449 0.460631 12.8541 -0.0518885 -79.6721 7.78022 -5.28404 -11.41 -29.2865 67.6727 0.0 0.0 0.0 24.651 -2.48212 -2.92905 0.43424 -0.0181244 -0.0641723 19.4628 0.461636 -2.68217 -39.859 0.0 0.0 -0.0 0.0 -0.0 8.07623 -48.0169 12.8033 -11.0187 -0.294557 -1.66275 36.9682 33.6675 5.88646 -3.38632 0.0 0.0 0.0 0.0 0.0 
3455.16 692.461 -1587.74 -52.6666 83.6356 49.3168 1.80767 0.253485 0.575409 1.80783 0.216357 0.590372 1.81009 0.107075 0.619583 1.80961 0.203581 0.594899 -2.62515 9.69351 1.49312 -2.50512 16.4216 2.9042 -0.0 0.0 -0.0 1.89551 22.62 5.26552 -20.7923 9.38691 67.95 0.560196 -15.5097 0.0762884 -80.8431 -7.92871 5.26759 3.88964 30.6279 34.8945 -0.0 0.0 -0.0 12.5839 6.12853 -25.5119 -1.09718 52.5406 -55.536 0.422109 11.8106 -0.0436605 -78.49 7.62997 -5.29753 -11.7629 -31.2418 67.0742 0.0 0.0 0.0 25.6955 -2.12196 -2.95756 0.514907 -0.0215448 -0.0760784 18.321 1.17691 -2.53469 -38.33 0.0 0.0 -0.0 0.0 -0.0 6.74548 -48.9275 11.804 -8.33327 -0.252357 -1.25288 36.7173 33.3092 5.82991 -4.81373 0.0 0.0 0.0 0.0 0.0 
3447.59 692.797 -1586.86 -53.8623 83.2498 50.7052 1.83538 0.251907 0.602702 1.83556 0.213046 0.617509 1.83789 0.0992681 0.64564 1.83736 0.199987 0.621861 -1.65067 11.5464 1.0031 -1.42876 20.0356 2.49608 -0.0 0.0 -0.0 2.55378 22.8937 6.19684 -19.6359 10.7558 66.0356 0.380108 -10.6638 0.0354752 -80.236 -7.85177 5.2765 4.02122 30.694 35.7994 -0.0 0.0 -0.0 12.8793 5.99463 -26.1728 0.619055 52.2285 -56.2291 0.422418 11.819 -0.0437237 -77.6177 7.5189 -5.30547 -12.0815 -32.9687 66.2457 0.0 0.0 0.0 26.5686 -2.21142 -2.90649 1.12616 -0.0480091 -0.166142 17.0087 1.16485 -2.36708 -37.4652 0.0 0.0 -0.0 0.0 -0.0 6.38643 -49.2368 11.4536 -7.23965 -0.229674 -1.0866 36.7069 33.778 5.86692 -5.46711 0.0 0.0 0.0 0.0 0.0 
3435.09 690.352 -1586.42 -62.897 83.5623 60.3143 1.71759 0.190123 0.665884 1.71782 0.147367 0.676632 1.71959 0.0226476 0.692123 1.71895 0.131669 0.679861 -4.72066 12.9785 0.707507 -4.58706 23.3249 2.91293 -0.0 0.0 -0.0 2.82542 23.616 6.59523 -19.2447 11.6679 64.5536 0.357216 -10.0351 0.0313627 -79.0374 -7.69959 5.29167 4.02335 29.9326 35.7595 -0.0 0.0 -0.0 12.4001 6.24631 -25.1034 2.75078 51.789 -57.9279 0.509506 14.1655 -0.0633067 -74.3613 7.10326 -5.32005 -12.2408 -33.7561 65.9841 0.0 0.0 0.0 28.2501 -2.09368 -3.33524 5.49119 -0.264752 -0.800523 9.76454 2.00355 -1.39645 -36.9114 0.0 0.0 -0.0 0.0 -0.0 4.89435 -47.3627 10.1934 -8.16925 -0.249158 -1.22792 37.1309 33.755 5.91138 -5.8822 0.0 0.0 0.0 0.0 0.0 
3433.32 687.323 -1588.21 -63.0582 82.7993 60.6981 1.72832 0.332801 0.6054 1.72848 0.293604 0.625349 1.73174 0.175896 0.668074 1.73122 0.279197 0.631913 -5.03249 14.162 1.41202 -4.90023 25.0315 3.89519 -0.0 0.0 -0.0 3.61275 23.2277 7.67895 -18.4509 12.2499 62.9826 0.249475 -7.0452 0.0153574 -78.8791 -7.67946 5.29343 4.25443 30.8485 37.4354 -0.0 0.0 -0.0 12.5655 8.05811 -25.53 4.16948 51.4359 -57.7869 0.52601 14.605 -0.0674071 -75.0093 7.18606 -5.31905 -12.2465 -33.7206 66.2282 0.0 0.0 0.0 29.6332 -1.67009 -3.92794 5.30153 -0.254331 -0.773307 9.76224 2.34023 -1.39531 -36.8334 0.0 0.0 -0.0 0.0 -0.0 3.94073 -52.3829 8.54879 -5.66078 -0.191333 -0.847342 36.4059 34.1157 5.86159 -6.60441 0.0 0.0 0.0 0.0 0.0 
3423.45 687.962 -1582.84 -57.6978 81.9888 56.0486 1.77905 0.405397 0.504435 1.77911 0.372477 0.529209 1.78261 0.271354 0.587509 1.78231 0.360733 0.537283 -5.83016 14.4719 -0.51079 -5.7273 27.1388 2.18155 -0.0 0.0 -0.0 4.44862 23.8314 8.83406 -19.5015 13.3006 61.71 0.254075 -7.17376 0.0159267 -77.933 -7.55907 5.3028 4.41865 30.9652 38.6122 -0.0 0.0 -0.0 12.1891 8.64631 -24.6903 4.47153 51.4741 -58.3487 0.535914 14.8679 -0.0699265 -73.286 6.96584 -5.31964 -12.1696 -33.5902 65.3882 0.0 0.0 0.0 30.0954 -2.2969 -4.54737 6.00305 -0.293325 -0.873806 7.18763 3.05017 -1.03514 -36.5874 0.0 0.0 -0.0 0.0 -0.0 3.06069 -51.595 7.87363 -6.29703 -0.207577 -0.943632 36.7104 32.6204 5.77466 -6.8116 0.0 0.0 0.0 0.0 0.0 
3414.06 682.052 -1584.65 -60.291 81.7129 58.8395 1.79253 0.545884 0.653086 1.79263 0.503221 0.686497 1.79876 0.371948 0.765611 1.79827 0.488191 0.697265 -7.55101 15.3868 -0.034009 -7.60519 28.7258 3.28409 -0.0 0.0 -0.0 4.75197 23.6468 9.26008 -19.2924 13.7997 60.8617 0.243444 -6.87654 0.0146264 -77.5168 -7.50604 5.30628 4.51862 31.0986 39.3406 -0.0 0.0 -0.0 12.3679 9.5078 -25.1056 5.03333 50.7614 -58.2888 0.571556 15.8087 -0.0793547 -73.2321 6.95894 -5.31955 -12.1524 -33.4344 65.6896 0.0 0.0 0.0 31.4651 -2.79858 -5.473 7.04665 -0.353611 -1.02243 3.80855 2.4924 -0.554693 -37.4181 0.0 0.0 -0.0 0.0 -0.0 2.44957 -52.1698 7.28405 -6.09975 -0.202655 -0.913756 37.0459 32.3916 5.79317 -7.04517 0.0 0.0 0.0 0.0 0.0 
